<mxfile host="Electron" agent="Mozilla/5.0 (Macintosh; Intel Mac OS X 10_15_7) AppleWebKit/537.36 (KHTML, like Gecko) draw.io/26.0.9 Chrome/128.0.6613.186 Electron/32.2.5 Safari/537.36" version="26.0.9">
  <diagram name="Page-1" id="e7e014a7-5840-1c2e-5031-d8a46d1fe8dd">
    <mxGraphModel dx="1114" dy="854" grid="1" gridSize="10" guides="1" tooltips="1" connect="1" arrows="1" fold="1" page="1" pageScale="1" pageWidth="1169" pageHeight="826" background="none" math="0" shadow="0">
      <root>
        <mxCell id="0" />
        <mxCell id="1" parent="0" />
        <mxCell id="3" value="Task manager app" style="swimlane;whiteSpace=wrap" parent="1" vertex="1">
          <mxGeometry x="444.5" y="128" width="280" height="570" as="geometry" />
        </mxCell>
        <mxCell id="H89dRqJL3ZzTjc-cYEoy-43" value="Create task" style="ellipse;whiteSpace=wrap;html=1;" vertex="1" parent="3">
          <mxGeometry x="20.5" y="32" width="120" height="80" as="geometry" />
        </mxCell>
        <mxCell id="H89dRqJL3ZzTjc-cYEoy-46" value="View/Display tasks" style="ellipse;whiteSpace=wrap;html=1;" vertex="1" parent="3">
          <mxGeometry x="75.5" y="302" width="120" height="80" as="geometry" />
        </mxCell>
        <mxCell id="H89dRqJL3ZzTjc-cYEoy-44" value="Update task" style="ellipse;whiteSpace=wrap;html=1;" vertex="1" parent="3">
          <mxGeometry x="20.5" y="192" width="120" height="80" as="geometry" />
        </mxCell>
        <mxCell id="H89dRqJL3ZzTjc-cYEoy-49" value="Delete task" style="ellipse;whiteSpace=wrap;html=1;" vertex="1" parent="3">
          <mxGeometry x="80.5" y="432" width="120" height="80" as="geometry" />
        </mxCell>
        <mxCell id="H89dRqJL3ZzTjc-cYEoy-50" value="Save task" style="ellipse;whiteSpace=wrap;html=1;" vertex="1" parent="3">
          <mxGeometry x="140.5" y="112" width="120" height="80" as="geometry" />
        </mxCell>
        <mxCell id="H89dRqJL3ZzTjc-cYEoy-55" value="" style="endArrow=classic;html=1;rounded=0;entryX=0.433;entryY=-0.05;entryDx=0;entryDy=0;entryPerimeter=0;" edge="1" parent="3" target="H89dRqJL3ZzTjc-cYEoy-50">
          <mxGeometry width="50" height="50" relative="1" as="geometry">
            <mxPoint x="140.5" y="82" as="sourcePoint" />
            <mxPoint x="190.5" y="32" as="targetPoint" />
          </mxGeometry>
        </mxCell>
        <mxCell id="H89dRqJL3ZzTjc-cYEoy-56" value="" style="endArrow=classic;html=1;rounded=0;entryX=0.292;entryY=0.913;entryDx=0;entryDy=0;entryPerimeter=0;" edge="1" parent="3" target="H89dRqJL3ZzTjc-cYEoy-50">
          <mxGeometry width="50" height="50" relative="1" as="geometry">
            <mxPoint x="140.5" y="232" as="sourcePoint" />
            <mxPoint x="190.5" y="182" as="targetPoint" />
          </mxGeometry>
        </mxCell>
        <mxCell id="H89dRqJL3ZzTjc-cYEoy-42" value="User" style="shape=actor;whiteSpace=wrap;html=1;" vertex="1" parent="1">
          <mxGeometry x="300" y="383" width="40" height="60" as="geometry" />
        </mxCell>
        <mxCell id="H89dRqJL3ZzTjc-cYEoy-51" value="" style="endArrow=classic;html=1;rounded=0;" edge="1" parent="1" target="H89dRqJL3ZzTjc-cYEoy-43">
          <mxGeometry width="50" height="50" relative="1" as="geometry">
            <mxPoint x="340" y="413" as="sourcePoint" />
            <mxPoint x="390" y="363" as="targetPoint" />
          </mxGeometry>
        </mxCell>
        <mxCell id="H89dRqJL3ZzTjc-cYEoy-52" value="" style="endArrow=classic;html=1;rounded=0;entryX=0.017;entryY=0.625;entryDx=0;entryDy=0;entryPerimeter=0;" edge="1" parent="1" target="H89dRqJL3ZzTjc-cYEoy-44">
          <mxGeometry width="50" height="50" relative="1" as="geometry">
            <mxPoint x="340" y="433" as="sourcePoint" />
            <mxPoint x="390" y="383" as="targetPoint" />
          </mxGeometry>
        </mxCell>
        <mxCell id="H89dRqJL3ZzTjc-cYEoy-53" value="" style="endArrow=classic;html=1;rounded=0;entryX=0;entryY=0.5;entryDx=0;entryDy=0;" edge="1" parent="1" target="H89dRqJL3ZzTjc-cYEoy-49">
          <mxGeometry width="50" height="50" relative="1" as="geometry">
            <mxPoint x="340" y="443" as="sourcePoint" />
            <mxPoint x="390" y="393" as="targetPoint" />
          </mxGeometry>
        </mxCell>
        <mxCell id="H89dRqJL3ZzTjc-cYEoy-54" value="" style="endArrow=classic;html=1;rounded=0;entryX=0;entryY=0.5;entryDx=0;entryDy=0;" edge="1" parent="1" target="H89dRqJL3ZzTjc-cYEoy-46">
          <mxGeometry width="50" height="50" relative="1" as="geometry">
            <mxPoint x="340" y="438" as="sourcePoint" />
            <mxPoint x="390" y="388" as="targetPoint" />
          </mxGeometry>
        </mxCell>
      </root>
    </mxGraphModel>
  </diagram>
</mxfile>
